<?xml version="1.0" encoding="UTF-8" standalone="no"?>
<svg
   xmlns:dc="http://purl.org/dc/elements/1.1/"
   xmlns:cc="http://creativecommons.org/ns#"
   xmlns:rdf="http://www.w3.org/1999/02/22-rdf-syntax-ns#"
   xmlns:svg="http://www.w3.org/2000/svg"
   xmlns="http://www.w3.org/2000/svg"
   id="svg8"
   version="1.1"
   viewBox="0 0 264.58333 255.58751"
   height="966"
   width="1000">
  <defs
     id="defs2">
    <pattern
       id="EMFhbasepattern"
       patternUnits="userSpaceOnUse"
       width="6"
       height="6"
       x="0"
       y="0" />
  </defs>
  <metadata
     id="metadata5">
    <rdf:RDF>
      <cc:Work
         rdf:about="">
        <dc:format>image/svg+xml</dc:format>
        <dc:type
           rdf:resource="http://purl.org/dc/dcmitype/StillImage" />
        <dc:title></dc:title>
      </cc:Work>
    </rdf:RDF>
  </metadata>
  <g
     transform="translate(0,-41.412487)"
     id="layer1">
    <path
       style="fill:#e0234e;fill-opacity:1;fill-rule:evenodd;stroke:none;stroke-width:0.80775058"
       d="m 153.33845,45.652481 c -1.80934,0 -3.48944,0.387729 -5.04032,0.904673 3.29558,2.19706 5.10493,5.104961 6.00963,8.400551 0.0648,0.45233 0.19386,0.775444 0.25856,1.227759 0.0648,0.387729 0.12916,0.775444 0.12916,1.163171 0.2586,5.686509 -1.48628,6.397323 -2.71403,9.757543 -1.87398,4.329529 -1.35704,8.982133 0.90466,12.730079 0.19387,0.452318 0.45234,0.969275 0.77546,1.421618 -2.45558,-16.348759 11.17919,-18.804304 13.69932,-23.90924 0.19386,-4.458761 -3.48944,-7.431263 -6.39731,-9.499092 -2.77864,-1.680104 -5.29884,-2.197062 -7.62513,-2.197062 z m 20.54903,3.683318 c -0.25858,1.486247 -0.0647,1.09853 -0.12913,1.873973 -0.0647,0.516945 -0.0647,1.163157 -0.12914,1.680102 -0.12914,0.516959 -0.2586,1.033904 -0.45236,1.550886 -0.12913,0.516945 -0.32309,1.033903 -0.51694,1.550847 -0.2586,0.516983 -0.45234,0.969301 -0.71082,1.486258 -0.19385,0.258585 -0.32309,0.516945 -0.51695,0.775443 -0.12914,0.193857 -0.25858,0.387715 -0.38771,0.581572 -0.32309,0.452355 -0.64621,0.904673 -0.96929,1.292387 -0.38774,0.387729 -0.71083,0.840046 -1.16319,1.163171 0,0.0647 0,0.0647 0,0.0647 -0.38771,0.3231 -0.77543,0.710815 -1.22775,1.033903 -1.35702,1.033902 -2.90787,1.809344 -4.32952,2.778644 -0.45231,0.323088 -0.90468,0.581587 -1.29238,0.9693 -0.45233,0.323088 -0.84006,0.646176 -1.22776,1.033903 -0.45236,0.387715 -0.77545,0.775442 -1.16318,1.227784 -0.32309,0.387728 -0.7108,0.840048 -0.96927,1.292402 -0.32312,0.452317 -0.6462,0.904661 -0.9047,1.35699 -0.25857,0.516944 -0.45233,0.969299 -0.71081,1.486245 -0.19385,0.516944 -0.38773,0.969301 -0.51695,1.486244 -0.19386,0.581586 -0.3231,1.098544 -0.45234,1.615514 -0.0647,0.258583 -0.0647,0.58156 -0.12914,0.840045 -0.0648,0.258584 -0.0648,0.516945 -0.12913,0.775443 0,0.516944 -0.0647,1.09853 -0.0647,1.615475 0,0.387727 0,0.775441 0.0647,1.163169 0,0.516946 0.0647,1.033892 0.19385,1.615476 0.0647,0.516944 0.19384,1.033902 0.32312,1.550885 0.19386,0.516944 0.3231,1.033902 0.51694,1.550847 0.12916,0.323126 0.32309,0.646213 0.45236,0.904673 l -14.86252,-5.75114 c -2.52018,-0.710815 -4.9757,-1.35699 -7.49588,-1.938576 -1.357,-0.323087 -2.714,-0.646198 -4.07102,-0.969299 -3.87719,-0.77543 -7.81895,-1.356991 -11.76076,-1.744705 -0.12913,0 -0.19385,-0.06471 -0.32309,-0.06471 -3.8772,-0.387714 -7.68973,-0.581572 -11.5669,-0.581572 -2.84328,0 -5.68656,0.129131 -8.465201,0.323088 -3.941798,0.258584 -7.883602,0.775442 -11.825373,1.421617 -0.969302,0.129144 -1.938602,0.323125 -2.907905,0.516984 -2.003199,0.387689 -3.941771,0.840044 -5.815742,1.292386 -0.9693,0.258584 -1.938602,0.516958 -2.907903,0.775419 -0.96927,0.387713 -1.87394,0.84007 -2.778642,1.227784 -0.710811,0.323088 -1.421619,0.646187 -2.132431,0.9693 -0.129139,0.06471 -0.25858,0.06471 -0.32309,0.129144 -0.64621,0.323087 -1.22779,0.581547 -1.809341,0.904671 -0.193861,0.06471 -0.323122,0.129132 -0.452351,0.193859 -0.71081,0.323089 -1.421618,0.710803 -2.003201,1.033902 -0.45235,0.193858 -0.90467,0.452343 -1.292389,0.646213 -0.193862,0.129131 -0.452353,0.258572 -0.581582,0.323088 -0.581579,0.323088 -1.16316,0.646174 -1.680111,0.9693 -0.581581,0.323087 -1.098532,0.646175 -1.550882,0.969263 -0.452318,0.323125 -0.904667,0.581585 -1.29239,0.904672 -0.06474,0.06471 -0.129139,0.06471 -0.193861,0.129145 -0.387719,0.258583 -0.840039,0.581571 -1.227758,0.904696 0,0 -0.06473,0.0647 -0.12914,0.129142 -0.32309,0.258584 -0.646212,0.516947 -0.969301,0.775407 -0.129138,0.06471 -0.258581,0.193857 -0.38772,0.258583 -0.32309,0.258586 -0.64618,0.581586 -0.969271,0.84007 -0.06473,0.129143 -0.193859,0.193858 -0.258581,0.258585 -0.38772,0.387715 -0.775441,0.710802 -1.163161,1.09853 -0.06473,0 -0.06473,0.06471 -0.129139,0.129131 -0.38772,0.3231 -0.775439,0.710816 -1.163159,1.098543 -0.06473,0.06471 -0.06473,0.12913 -0.12914,0.12913 -0.32309,0.323089 -0.64618,0.646213 -0.969301,1.033902 -0.129137,0.129143 -0.32309,0.258586 -0.452319,0.387715 -0.32309,0.387728 -0.710811,0.775443 -1.09853,1.163171 -0.06473,0.129132 -0.19386,0.193858 -0.258582,0.323087 -0.516952,0.516983 -0.969302,1.033928 -1.486252,1.550885 -0.06473,0.06471 -0.129138,0.129128 -0.193859,0.193858 -1.033931,1.098529 -2.132463,2.197059 -3.295594,3.166352 -1.163159,1.0339 -2.390922,2.0032 -3.618711,2.84325 -1.292392,0.9047 -2.520152,1.68011 -3.877173,2.45555 -1.292392,0.71079 -2.649412,1.35701 -4.071032,1.9386 -1.357022,0.58157 -2.778641,1.09854 -4.200264,1.55085 -2.714041,0.58157 -5.492684,1.68011 -7.883605,1.87397 -0.51695,0 -1.098531,0.12915 -1.615482,0.19385 -0.581578,0.12914 -1.098529,0.25859 -1.615479,0.38774 -0.516951,0.19384 -1.033931,0.38771 -1.550883,0.58156 -0.516951,0.19386 -1.033901,0.45235 -1.550852,0.71083 -0.45235,0.32308 -0.969299,0.58157 -1.421651,0.90466 -0.452322,0.32309 -0.904672,0.7108 -1.292393,1.09853 -0.452319,0.32312 -0.904669,0.77545 -1.29239,1.16315 -0.387721,0.45237 -0.77544,0.84008 -1.0985304,1.29239 -0.3230901,0.51695 -0.7108108,0.96931 -0.9693016,1.48627 -0.32309,0.45235 -0.6461799,0.96929 -0.9046707,1.48622 -0.2585815,0.58161 -0.5169498,1.09855 -0.7108107,1.68014 -0.1938599,0.51695 -0.3877199,1.09852 -0.5815799,1.68011 -0.1291382,0.51694 -0.2585813,1.0339 -0.3230898,1.55083 0,0.0648 -0.064719,0.12916 -0.064719,0.19387 -0.1291392,0.58161 -0.1291392,1.35706 -0.1938608,1.74479 -0.064719,0.45232 -0.1291373,0.84002 -0.1291373,1.29238 0,0.25858 0,0.58155 0.064719,0.84003 0.064719,0.45236 0.1291371,0.84007 0.2585814,1.22782 0.1291382,0.38766 0.2585815,0.77539 0.4523201,1.16312 0,0.0647 0,0.0647 0,0.0647 0.1938599,0.38775 0.4523506,0.77545 0.7108108,1.16317 0.2585814,0.38772 0.5169804,0.77544 0.8400704,1.16317 0.3230899,0.32309 0.7108109,0.71078 1.0985304,1.03389 0.3877209,0.38772 0.7754421,0.71081 1.2277611,1.0339 1.550881,1.35703 1.938601,1.80938 3.941806,2.84327 0.323087,0.19387 0.64621,0.32311 1.03393,0.51697 0.06473,0 0.129139,0.0647 0.193859,0.0647 0,0.12913 0,0.19387 0.06473,0.32313 0.06472,0.51696 0.193859,1.03389 0.32309,1.55086 0.129138,0.58158 0.323121,1.09855 0.516981,1.55087 0.19386,0.38773 0.32309,0.77543 0.516951,1.16317 0.06472,0.12915 0.12914,0.25858 0.19386,0.32309 0.258581,0.51694 0.51695,0.96932 0.77541,1.42162 0.323121,0.45233 0.64621,0.90466 0.969299,1.35703 0.323092,0.3877 0.710813,0.84004 1.098532,1.22775 0.387721,0.38773 0.775442,0.71083 1.227793,1.09852 0,0 0.06473,0.0648 0.129137,0.0648 0.387722,0.32312 0.77544,0.64622 1.163162,0.90466 0.45232,0.32311 0.90467,0.58157 1.421619,0.84007 0.452351,0.25858 0.969302,0.51695 1.486252,0.71082 0.387721,0.19386 0.84004,0.32311 1.292392,0.45234 0.06473,0.0648 0.129138,0.0648 0.258582,0.12916 0.258581,0.0648 0.581548,0.12912 0.840039,0.19384 -0.193859,3.48945 -0.258582,6.78504 0.258583,7.94822 0.58155,1.29238 3.424821,-2.64941 6.268094,-7.17277 -0.387719,4.45875 -0.646211,9.6929 0,11.24381 0.710809,1.61545 4.587982,-3.42487 7.948203,-8.98215 45.815262,-10.59757 87.62418,21.066 92.01829,65.78273 -0.84006,-6.97892 -9.43446,-10.85608 -13.37623,-9.88677 -1.93861,4.78183 -5.2342,10.92068 -10.53299,14.73324 0.45233,-4.2649 0.25856,-8.65901 -0.64619,-12.92392 -1.42165,5.94501 -4.2003,11.50232 -8.01287,16.28415 v 0 c -6.138857,0.45232 -12.277729,-2.52019 -15.50872,-6.97891 -0.258582,-0.19388 -0.323091,-0.58159 -0.516951,-0.84006 -0.193862,-0.45238 -0.387719,-0.90467 -0.516951,-1.35703 -0.193859,-0.45232 -0.323089,-0.90467 -0.387719,-1.35699 -0.06473,-0.45236 -0.06473,-0.90469 -0.06473,-1.42163 0,-0.32312 0,-0.6462 0,-0.96928 0.06473,-0.45238 0.19386,-0.90471 0.323091,-1.35705 0.129138,-0.45232 0.25858,-0.90467 0.45235,-1.35701 0.258582,-0.45231 0.45232,-0.90466 0.775441,-1.35698 1.09853,-3.10178 1.09853,-5.62192 -0.90467,-7.10816 -0.387721,-0.25858 -0.775441,-0.45236 -1.227791,-0.64622 -0.258584,-0.0647 -0.581582,-0.19386 -0.84004,-0.25857 -0.193861,-0.0647 -0.32309,-0.12916 -0.516951,-0.19387 -0.452351,-0.12914 -0.904702,-0.25859 -1.357022,-0.32309 -0.45235,-0.12913 -0.90467,-0.19386 -1.35702,-0.19386 -0.452321,-0.0648 -0.969303,-0.12914 -1.421622,-0.12914 -0.323089,0 -0.64621,0.0647 -0.969301,0.0647 -0.516949,0 -0.969299,0.0648 -1.421621,0.19386 -0.45235,0.0648 -0.904669,0.12913 -1.357019,0.25856 -0.452322,0.12915 -0.904673,0.25859 -1.357023,0.45238 -0.452319,0.19385 -0.840041,0.38771 -1.292389,0.58157 -0.38769,0.19387 -0.775412,0.45232 -1.227761,0.64618 -15.056371,9.82217 -6.074235,32.82674 4.200264,39.48256 -3.877175,0.71081 -7.818947,1.5509 -8.917479,2.39092 -0.06473,0.0647 -0.129138,0.12915 -0.129138,0.12915 2.778642,1.68009 5.686516,3.10173 8.723616,4.32949 4.135665,1.35702 8.529786,2.58479 10.468387,3.10176 0,0 0,0.0647 0,0.0647 5.363424,1.09854 10.79148,1.48626 16.284139,1.16317 28.62649,-2.00321 52.0834,-23.78003 56.3483,-52.47111 0.12914,0.58159 0.25858,1.09852 0.38772,1.68012 v 0 c 0.19387,1.16312 0.45232,2.3909 0.58155,3.61867 0,0 0,0 0,0.0648 0.12914,0.58158 0.19386,1.16315 0.25858,1.6801 0,0.12914 0,0.19386 0,0.25859 0.0648,0.58157 0.12915,1.16316 0.12915,1.6801 0.0647,0.71082 0.12914,1.42162 0.12914,2.13247 0,0.32309 0,0.64619 0,1.0339 0,0.32312 0.0647,0.7108 0.0647,1.03392 0,0.38773 -0.0647,0.77542 -0.0647,1.16314 0,0.32313 0,0.64621 0,0.90467 0,0.45236 -0.0648,0.84006 -0.0648,1.2924 0,0.25856 0,0.51696 -0.0647,0.84006 0,0.45236 -0.0647,0.90466 -0.0647,1.42162 -0.0648,0.19386 -0.0648,0.38772 -0.0648,0.58159 -0.0647,0.51696 -0.12914,0.9693 -0.19387,1.48626 0,0.19387 0,0.38771 -0.0647,0.58159 -0.0648,0.64617 -0.19385,1.22777 -0.25855,1.87394 0,0 0,0.0648 0,0.0648 v 0.0647 c -0.12914,0.58157 -0.2586,1.22776 -0.38775,1.80933 0,0.0647 0,0.12914 0,0.19387 -0.12912,0.58156 -0.25858,1.16316 -0.3877,1.74471 0,0.0648 -0.0647,0.19387 -0.0647,0.25856 -0.12916,0.5816 -0.2586,1.16317 -0.45232,1.74478 0,0.0647 0,0.12912 0,0.19384 -0.19386,0.64617 -0.38773,1.22776 -0.51698,1.80934 -0.0647,0.0647 -0.0647,0.12914 -0.0647,0.12914 -0.19387,0.64621 -0.38771,1.29239 -0.58155,1.93858 -0.25858,0.64621 -0.45234,1.22778 -0.71081,1.87398 -0.25857,0.6462 -0.45236,1.2924 -0.71083,1.87396 -0.25859,0.64622 -0.51697,1.2278 -0.77543,1.87397 0,0 -0.0648,0 -0.0648,0 -0.2586,0.58157 -0.51699,1.22779 -0.8401,1.80938 0,0 0,0 0,0 0,0 0,0 0,0 -0.0647,0.19383 -0.12912,0.32309 -0.19384,0.4523 -0.0647,0.0648 -0.0647,0.12914 -0.12914,0.19388 -4.20026,8.46514 -10.40377,15.89639 -18.15809,21.71217 v 0 c -0.51695,0.32309 -1.03392,0.71082 -1.55086,1.09852 0,0 0,0 0,0 -0.12915,0.12915 -0.32312,0.19388 -0.45235,0.32309 -0.45235,0.3231 -0.90468,0.64618 -1.42161,0.96931 l 0.19385,0.38772 h 0.0647 v 0 c 0.90466,-0.12913 1.80934,-0.25858 2.71402,-0.38772 h 0.0647 c 1.68012,-0.25858 3.36023,-0.58158 5.04035,-0.90467 0.45231,-0.0648 0.9693,-0.19385 1.42161,-0.32312 0.32309,-0.0648 0.58158,-0.12913 0.90467,-0.19386 0.45235,-0.0648 0.90468,-0.19386 1.35704,-0.25857 0.3877,-0.12914 0.77543,-0.19388 1.16314,-0.3231 6.46195,-1.55089 12.73007,-3.68335 18.73965,-6.20349 -10.27448,14.02243 -24.03847,25.33087 -40.12874,32.76212 7.43127,-0.51696 14.86251,-1.74472 22.03528,-3.81254 26.0417,-7.68977 47.94772,-25.20165 61.06549,-48.7878 -2.6494,14.92714 -8.5944,29.14344 -17.38265,41.55041 6.26809,-4.13569 12.01923,-8.91753 17.25342,-14.34557 14.47478,-15.12097 23.97388,-34.31296 27.20483,-54.92665 2.19708,10.2099 2.84328,20.74293 1.87398,31.14666 46.65534,-65.07192 3.87717,-132.53476 -14.02244,-150.305141 -0.0648,-0.129133 -0.12914,-0.193858 -0.12914,-0.323089 -0.0648,0.0647 -0.0648,0.0647 -0.0648,0.129144 0,-0.06471 0,-0.06471 -0.0647,-0.129144 0,0.775442 -0.0647,1.550848 -0.12914,2.326291 -0.19387,1.48625 -0.38771,2.907879 -0.64621,4.329529 -0.32308,1.42162 -0.71081,2.84322 -1.09854,4.26488 -0.45232,1.35699 -0.96925,2.77862 -1.55085,4.13565 -0.58158,1.29237 -1.22778,2.64939 -1.93859,3.9418 -0.71082,1.22778 -1.48625,2.52016 -2.32629,3.6833 -0.84006,1.2278 -1.74474,2.39093 -2.64943,3.48944 -0.96931,1.16318 -2.00319,2.1971 -3.03712,3.23101 -0.64618,0.58158 -1.22775,1.09853 -1.87398,1.61546 -0.51694,0.45236 -0.96927,0.84009 -1.48625,1.29239 -1.16314,0.90468 -2.32629,1.74474 -3.61867,2.52019 -1.22778,0.77542 -2.52014,1.55086 -3.81254,2.19707 -1.35702,0.64619 -2.71404,1.22776 -4.07104,1.80935 -1.35702,0.51693 -2.77864,0.96928 -4.20031,1.35701 -1.42161,0.3877 -2.90785,0.71081 -4.32949,0.96928 -1.48623,0.25858 -2.97249,0.38771 -4.39412,0.51697 -1.03392,0.0647 -2.06782,0.12915 -3.10175,0.12915 -1.48626,0 -2.97248,-0.12915 -4.39412,-0.25858 -1.48624,-0.12914 -2.97251,-0.32314 -4.39413,-0.64623 -1.48625,-0.25858 -2.9079,-0.64621 -4.32953,-1.09851 h -0.0647 c 1.42163,-0.12914 2.84327,-0.2586 4.26492,-0.51697 1.48622,-0.25858 2.90785,-0.58156 4.3295,-0.96931 1.42162,-0.38771 2.84325,-0.84006 4.20026,-1.357 1.42162,-0.51696 2.77865,-1.16313 4.07105,-1.80936 1.357,-0.64621 2.58478,-1.357 3.87716,-2.13244 1.22776,-0.84005 2.45554,-1.68009 3.61869,-2.58479 1.16316,-0.90466 2.26167,-1.87394 3.29562,-2.90786 1.09853,-0.96932 2.06781,-2.06784 3.03711,-3.16638 0.96927,-1.16312 1.87396,-2.32628 2.71402,-3.48944 0.12915,-0.19387 0.25859,-0.45232 0.38774,-0.64619 0.64617,-1.03392 1.29235,-2.06783 1.87392,-3.10176 0.71083,-1.29239 1.35704,-2.58479 1.9386,-3.94177 0.58159,-1.35702 1.09855,-2.71405 1.55089,-4.13566 0.45232,-1.35703 0.77542,-2.77864 1.09853,-4.200258 0.25859,-1.486258 0.51694,-2.90791 0.64619,-4.329528 0.12914,-1.486244 0.25857,-2.972503 0.25857,-4.394119 0,-1.033928 -0.0648,-2.06783 -0.12912,-3.101733 -0.12915,-1.486246 -0.32311,-2.9079 -0.51696,-4.329519 -0.25859,-1.486257 -0.58157,-2.907873 -0.96931,-4.329529 -0.45231,-1.356991 -0.90467,-2.778634 -1.42161,-4.135623 -0.51699,-1.357028 -1.16315,-2.714042 -1.80938,-4.006443 -0.71081,-1.292388 -1.42161,-2.584776 -2.19704,-3.812536 -0.84005,-1.22776 -1.68013,-2.390917 -2.5848,-3.554087 -0.96927,-1.098531 -1.93857,-2.19706 -2.97251,-3.29559 -0.51694,-0.516947 -1.09853,-1.098532 -1.6801,-1.615476 -2.90787,-2.2617 -5.945,-4.394159 -8.9821,-6.332732 -0.45233,-0.258574 -0.84005,-0.452342 -1.2924,-0.646212 -2.13246,-1.356992 -4.13566,-2.067831 -6.13885,-2.714007 z"
       id="path818" />
  </g>
</svg>
